<?xml version="1.0" encoding="UTF-8"?>
<svg id="svg745" xmlns="http://www.w3.org/2000/svg" version="1.1" xmlns:svg="http://www.w3.org/2000/svg" viewBox="0 0 1024 267">
  <defs>
    <style>
      .cls-1 {
        fill: #f2b807;
        fill-rule: evenodd;
        stroke-width: 0px;
      }
    </style>
  </defs>
  <path id="path661" class="cls-1" d="M782.9,7.6c-10.3,0-19,8.1-19,18.1v215.6c0,10,5.7,18.1,16,18.1h214.7c10.3,0,21.2-8.1,21.2-18.1V25.7c0-10-8-18.1-18.2-18.1h-214.7ZM817.9,39c12.4,0,22.5,10.1,22.5,22.5s-10.1,22.5-22.5,22.5-22.5-10.1-22.5-22.5,10.1-22.5,22.5-22.5ZM158.2,39.9c-11.9,0-21.6,9.7-21.6,21.6s9.7,21.6,21.6,21.6,21.6-9.7,21.6-21.6-9.7-21.6-21.6-21.6ZM8.2,43.5v179.9h108v-36H44.2V43.5H8.2ZM344.1,43.5v179.9h36v-60l44.4,60h42.5l-50.9-65.6,48-54.4h-42l-42,48V43.5h-36ZM691.9,43.5v74.3h-.4c-7.3-8.9-19.4-15.8-38.9-15.8-31.5,0-56.9,24.7-56.9,61.6s25.8,61.3,55.8,61.3,35-7.1,42.4-15.8h.4v14.3h33.6V43.5h-36ZM273.7,102c-18.9,0-34.2,9.5-39.3,18.8h-.4v-17.3h-33.9v119.9h36v-57.6c0-18,8.6-32.4,26.7-32.4s21.3,12.3,21.3,29.9v60h36v-66.6c0-31.9-10.1-54.9-46.3-54.9ZM526.7,102c-41,0-62.7,24-62.7,58.8s24,64.1,61.7,64.1,45.7-9.8,54.2-20.8l-22.4-18.2c-4.8,6.6-15.6,15-31.2,15s-25.7-12.6-28.1-23l-.2-3.7h85.3s.7-4,.7-8.1c0-40.9-21.8-64.1-57.2-64.1h0ZM933.5,102c36.2,0,46.3,19.2,46.3,54.9v66.6h-36v-60c0-16-6.4-29.9-21.3-29.9s-26.7,12.2-26.7,32.4v57.6h-36v-119.9h33.9v17.3h.4c5.2-9.3,20.5-18.8,39.3-18.8h0ZM140.2,103.5v119.9h36v-119.9h-36ZM799.9,103.5h36v119.9h-36v-119.9ZM525.7,126c14.6,0,23.9,12.8,23.7,25.5h-51.4c1-11.9,10.3-25.5,27.7-25.5ZM661.7,129c20.6,0,32.6,13.7,32.6,34.2s-12,34.8-32.6,34.8-32.1-15.3-32.1-34.8,11.5-34.2,32.1-34.2Z"/>
</svg>